<mxfile host="app.diagrams.net" modified="2024-01-02T01:33:51.927Z" agent="Mozilla/5.0 (Windows NT 10.0; Win64; x64) AppleWebKit/537.36 (KHTML, like Gecko) Chrome/120.0.0.0 Safari/537.36 Edg/120.0.0.0" etag="EUrTflwg9tiGjv7Zws9r" version="22.1.16" type="device">
  <diagram name="Page-1" id="P5em3P5klYBcVEwDrhZq">
    <mxGraphModel dx="1002" dy="569" grid="1" gridSize="10" guides="1" tooltips="1" connect="1" arrows="1" fold="1" page="1" pageScale="1" pageWidth="850" pageHeight="1100" math="0" shadow="0">
      <root>
        <mxCell id="0" />
        <mxCell id="1" parent="0" />
        <mxCell id="hArsx0A0GkBe6HHHavlt-1" value="" style="whiteSpace=wrap;html=1;aspect=fixed;" vertex="1" parent="1">
          <mxGeometry x="120" y="260" width="340" height="340" as="geometry" />
        </mxCell>
        <mxCell id="hArsx0A0GkBe6HHHavlt-2" value="" style="triangle;whiteSpace=wrap;html=1;rotation=-90;" vertex="1" parent="1">
          <mxGeometry x="185.57" y="-14.43" width="203.86" height="345" as="geometry" />
        </mxCell>
        <mxCell id="hArsx0A0GkBe6HHHavlt-3" value="" style="image;html=1;image=img/lib/clip_art/computers/Laptop_128x128.png" vertex="1" parent="1">
          <mxGeometry x="130" y="510" width="80" height="80" as="geometry" />
        </mxCell>
        <mxCell id="hArsx0A0GkBe6HHHavlt-9" style="edgeStyle=orthogonalEdgeStyle;rounded=0;orthogonalLoop=1;jettySize=auto;html=1;" edge="1" parent="1" source="hArsx0A0GkBe6HHHavlt-4" target="hArsx0A0GkBe6HHHavlt-7">
          <mxGeometry relative="1" as="geometry" />
        </mxCell>
        <mxCell id="hArsx0A0GkBe6HHHavlt-4" value="" style="image;html=1;image=img/lib/clip_art/networking/Wireless_Router_128x128.png" vertex="1" parent="1">
          <mxGeometry x="309.43" y="350" width="80" height="80" as="geometry" />
        </mxCell>
        <mxCell id="hArsx0A0GkBe6HHHavlt-10" style="edgeStyle=orthogonalEdgeStyle;rounded=0;orthogonalLoop=1;jettySize=auto;html=1;" edge="1" parent="1" source="hArsx0A0GkBe6HHHavlt-6" target="hArsx0A0GkBe6HHHavlt-4">
          <mxGeometry relative="1" as="geometry" />
        </mxCell>
        <mxCell id="hArsx0A0GkBe6HHHavlt-6" value="nhà mạng" style="ellipse;shape=cloud;whiteSpace=wrap;html=1;" vertex="1" parent="1">
          <mxGeometry x="350" y="260" width="100" height="60" as="geometry" />
        </mxCell>
        <mxCell id="hArsx0A0GkBe6HHHavlt-8" style="edgeStyle=orthogonalEdgeStyle;rounded=0;orthogonalLoop=1;jettySize=auto;html=1;" edge="1" parent="1" source="hArsx0A0GkBe6HHHavlt-7" target="hArsx0A0GkBe6HHHavlt-3">
          <mxGeometry relative="1" as="geometry" />
        </mxCell>
        <mxCell id="hArsx0A0GkBe6HHHavlt-12" style="edgeStyle=orthogonalEdgeStyle;rounded=0;orthogonalLoop=1;jettySize=auto;html=1;" edge="1" parent="1" source="hArsx0A0GkBe6HHHavlt-7" target="hArsx0A0GkBe6HHHavlt-11">
          <mxGeometry relative="1" as="geometry" />
        </mxCell>
        <mxCell id="hArsx0A0GkBe6HHHavlt-7" value="" style="image;html=1;image=img/lib/clip_art/networking/Switch_128x128.png" vertex="1" parent="1">
          <mxGeometry x="180" y="400" width="80" height="80" as="geometry" />
        </mxCell>
        <mxCell id="hArsx0A0GkBe6HHHavlt-11" value="" style="sketch=0;pointerEvents=1;shadow=0;dashed=0;html=1;strokeColor=none;fillColor=#505050;labelPosition=center;verticalLabelPosition=bottom;verticalAlign=top;outlineConnect=0;align=center;shape=mxgraph.office.devices.tv;" vertex="1" parent="1">
          <mxGeometry x="300" y="530" width="59" height="45" as="geometry" />
        </mxCell>
      </root>
    </mxGraphModel>
  </diagram>
</mxfile>
